<?xml version="1.0" encoding="utf-8"?>
<!-- Generator: Adobe Illustrator 24.0.3, SVG Export Plug-In . SVG Version: 6.00 Build 0)  -->
<svg version="1.1" id="Layer_1" xmlns="http://www.w3.org/2000/svg" xmlns:xlink="http://www.w3.org/1999/xlink" x="0px" y="0px"
	 viewBox="0 0 90 15" style="enable-background:new 0 0 90 15;" xml:space="preserve">
<style type="text/css">
	.st0{fill:#FFFFFF;}
</style>
<g>
	<path class="st0" d="M25.4,2.8c-2.1,0-3.9,1.7-3.9,3.8v1.9c0,2.1,1.7,3.8,3.9,3.8h4.4c2.1,0,3.9-1.7,3.9-3.8V6.5
		c0-2.1-1.7-3.8-3.9-3.8C29.8,2.8,25.4,2.8,25.4,2.8z M25.3,5.2H30c0.7,0,1.3,0.4,1.3,1.2v2.3c0,0.7-0.5,1.3-1.3,1.3h-4.8
		c-0.7,0-1.4-0.5-1.4-1.3V6.4C23.9,5.6,24.5,5.2,25.3,5.2z"/>
	<path class="st0" d="M53.3,2.8h8.1v2.4h-8.2c-0.7,0-1.3,0.6-1.3,1.3v0.1v1.9v0.1c0,0.7,0.6,1.3,1.3,1.3h8.2v2.4h-8.1
		c-2.1,0-3.9-1.7-3.9-3.8V8.3l0,0V6.8V6.7C49.4,4.5,51.2,2.8,53.3,2.8"/>
	<path class="st0" d="M38.4,5.2v2.2h4.6c1.4,0,1.4-2.2,0-2.2H38.4z M43.9,2.8c1.7,0,3.1,1.7,3.1,3.4c0,0.9-0.4,2-1.1,2.5l2.1,3.5
		h-2.7l-1.5-2.3h-5.5v2.3h-2.4V4.4c0-1,0.6-1.6,1.3-1.6L43.9,2.8L43.9,2.8z"/>
	<g>
		<path class="st0" d="M12.3,2.7C11,1.3,9.1,0.5,7.1,0.5C3.2,0.5,0,3.6,0,7.5c0,3.9,3.2,7,7.1,7c2.1,0,3.9-0.9,5.2-2.2l4.5-4.8
			L12.3,2.7z M7.1,12.1c-2.6,0-4.6-2.1-4.6-4.6s2.1-4.6,4.6-4.6s4.6,2.1,4.6,4.6S9.7,12.1,7.1,12.1z"/>
		<path class="st0" d="M7.2,9.9c1.3,0,2.4-1.1,2.4-2.4S8.5,5.1,7.2,5.1S4.8,6.2,4.8,7.5S5.9,9.9,7.2,9.9"/>
	</g>
	<path class="st0" d="M68.7,5.2h-1.3c-0.7,0-1.3,0.6-1.3,1.3v1h7.2v-1c0-0.7-0.6-1.3-1.3-1.3H68.7z M67.6,2.8h1.1h3.1
		c2.1,0,3.9,1.7,3.9,3.8v0.9v2.2v2.6h-2.4V9.8h-7.2v2.4h-2.4V9.6V7.5V6.6C63.8,4.5,65.5,2.8,67.6,2.8"/>
	<path class="st0" d="M86.1,2.8H83h-1.1c-2.1,0-3.9,1.7-3.9,3.8v0.9v2.2v2.6h2.4V9.8h0V7.3l0,0V6.5c0-0.7,0.6-1.3,1.3-1.3h1v7.1h2.4
		V5.1h1c0.7,0,1.3,0.6,1.3,1.3v0.8v0.2v4.8H90V9.6V7.5V6.6C90,4.5,88.3,2.8,86.1,2.8z"/>
</g>
</svg>
